# xmcd
#
# Track frame offsets: 
#        150
#        20094
#        35375
#        52003
#        70819
#        88144
#        104074
#        120051
#        137278
#        158523
#        181997
#        198685
#
# Disc length: 2910 seconds
#
# Revision: 1
# Processed by: cddbd v1.5.2PL0 Copyright (c) Steve Scherf et al.
# Submitted via: ExactAudioCopy v0.99pb5
#
DISCID=9e0b5c0c
DTITLE=Sonic Syndicate - Love and Other Disasters
DYEAR=2008
DGENRE=Metal
TTITLE0=Encaged
TTITLE1=Hellgate: Worcester
TTITLE2=Jack of Diamonds
TTITLE3=My Escape
TTITLE4=Fallout
TTITLE5=Power Shift
TTITLE6=Contradiction
TTITLE7=Damage Control
TTITLE8=Red Eyed Friend
TTITLE9=Affliction
TTITLE10=Ruin
TTITLE11=Dead Planet 
EXTD=
EXTT0=
EXTT1=
EXTT2=
EXTT3=
EXTT4=
EXTT5=
EXTT6=
EXTT7=
EXTT8=
EXTT9=
EXTT10=
EXTT11=
PLAYORDER=
